<?xml version="1.0" encoding="UTF-8"?>
<svg id="Capa_2" data-name="Capa 2" xmlns="http://www.w3.org/2000/svg" viewBox="0 0 500 500">
  <g id="Capa_2-2" data-name="Capa 2">
    <g>
      <path d="M206.91,151.48c-16.73,104.25-32.52,212-25.46,317.87,.59,7.12-.76,11.57-3.19,10.93-.07-.02-.11-.03-.18-.05-9.53-3.77-19.01-8-28.19-12.55-2.34-.86-6.59-7.53-9.74-14.37-14.16-31.74-26.97-63.89-38.23-96.78,2.64,34.15,8.15,67.03,19.29,99.49,2.23,5.99,2.8,9.98,.76,8.76-8.94-5.58-13.29-8.58-21.7-14.93-2.03-1.69-7.14-7.52-11.62-13.68C37.82,367.78-4.14,280.83,6.81,193.41c.24-1.87,.51-3.73,.99-5.62,1.82-7.11,5.08-11.32,8.91-12.25,9.59-2.2,19.26-4.17,28.94-5.92,2.66-.53,4.24,4.65,3.59,13.11-4.56,45.07,2.97,90.56,14.7,133.97-.88-38.79,2.77-76.68,9.95-114.8,1.65-8.23,5.23-15.99,8.3-15.76,10.56-.95,21.14-1.7,31.72-2.43,3.04-.25,5.19,7.48,5.88,15.5,3.11,39.55,8.67,78.58,16.27,117.52,3.69-59.38,12.41-117.91,24.55-176.12,1.95-8.7,5.36-15.04,8.41-15.34,.09,0,.14-.01,.23-.02,10.96,.87,21.86,1.9,32.79,3.07,3.84,.43,6.04,5.94,5.7,14.84-.1,2.54-.43,5.09-.81,8.31Z"/>
      <path d="M269.37,492.03c-.24,4.19-1.76,7.36-3.12,7.45q-.21,.01-.21,.01c-11.87-.13-23.73-1.07-35.47-2.81-1.74-.13-3.16-3.83-3.64-8.06-7.72-103.2-10.7-206.67-10.01-310.14,.1-5.28,1.72-9.22,3.76-9.26,17.98,.38,35.93,1.01,53.89,1.89,2.05,.03,3.92,4.65,4,9.92,.39,103.74-2.4,207.47-9.21,310.99Zm-15.77-351.62c-24.33,.06-27.15-55.62-26.41-73.71C227.82,50.98,233.41-.21,252.78,.02c19.35,.23,25.82,51.16,26.66,67.03,.95,17.97-1.54,73.31-25.85,73.36Z"/>
      <path d="M488.93,177.36c13.23,91.01-23.36,178.14-73.4,252.29-4.22,6.16-8.88,11.52-10.87,12.87-.06,.04-.09,.06-.15,.1-8.21,4.84-12.58,6.98-21.78,10.67-2.17,1.13-1.88-3.2-.45-8.85,6.85-28.77,9.33-57.37,9.65-86.91-10.58,37.42-23.35,73.85-38.39,109.71-2.99,7.02-7.23,13.54-9.45,14.45-9.43,3.51-14.28,5.01-24.24,7.51-2.05,.14-3.38-4.63-2.9-11.59,3.44-101.69-10.06-203.51-23.17-304.12-.32-2.61-.66-5.22-.74-7.81-.29-9.75,2.26-14.74,7.23-14.53,12,.72,23.99,1.64,35.96,2.73,3.14,.23,7.05,7.32,8.69,17.47,7.32,50.81,14.11,101.7,17.3,152.97,7.43-41.74,12.53-83.55,14.89-125.89,.42-8.7,2.57-16.45,5.9-15.58,10.67,1.12,21.33,2.26,31.97,3.58,2.93,.31,6.48,8.12,8.3,15.81,7.5,35.72,12.01,71.37,12.66,107.88,12.1-50.42,17.69-100.92,12.04-152.63-.82-6.98,.05-11.34,2.59-10.65,.08,.02,.12,.03,.19,.05,9.37,3.91,18.7,7.94,27.97,12.09,3.13,1.39,6.55,6.01,8.69,12.46,.61,1.84,1.02,3.63,1.52,5.92Z"/>
    </g>
  </g>
</svg>